<svg width="144" height="152" viewBox="0 0 144 152" fill="none" xmlns="http://www.w3.org/2000/svg">
<path d="M4.86 40C4.308 40 3.828 39.796 3.42 39.388C3.036 38.98 2.844 38.5 2.844 37.948V15.772C2.844 15.22 3.036 14.74 3.42 14.332C3.828 13.924 4.308 13.72 4.86 13.72H5.832C6.384 13.72 6.864 13.924 7.272 14.332C7.68 14.74 7.884 15.22 7.884 15.772V23.944C7.884 24.136 7.98 24.232 8.172 24.232H17.172C17.364 24.232 17.46 24.136 17.46 23.944V15.772C17.46 15.22 17.664 14.74 18.072 14.332C18.48 13.924 18.96 13.72 19.512 13.72H20.484C21.036 13.72 21.504 13.924 21.888 14.332C22.296 14.74 22.5 15.22 22.5 15.772V37.948C22.5 38.5 22.296 38.98 21.888 39.388C21.504 39.796 21.036 40 20.484 40H19.512C18.96 40 18.48 39.796 18.072 39.388C17.664 38.98 17.46 38.5 17.46 37.948V28.408C17.46 28.192 17.364 28.084 17.172 28.084H8.172C7.98 28.084 7.884 28.192 7.884 28.408V37.948C7.884 38.5 7.68 38.98 7.272 39.388C6.864 39.796 6.384 40 5.832 40H4.86ZM37.2277 18.184L34.0597 29.488C34.0357 29.56 34.0477 29.632 34.0957 29.704C34.1437 29.776 34.2037 29.812 34.2757 29.812H40.2517C40.3237 29.812 40.3837 29.776 40.4317 29.704C40.4797 29.632 40.4917 29.56 40.4677 29.488L37.2997 18.184C37.2997 18.16 37.2877 18.148 37.2637 18.148C37.2397 18.148 37.2277 18.16 37.2277 18.184ZM27.9037 40C27.3997 40 27.0037 39.796 26.7157 39.388C26.4277 38.98 26.3677 38.536 26.5357 38.056L33.9877 15.664C34.2037 15.088 34.5517 14.62 35.0317 14.26C35.5357 13.9 36.0877 13.72 36.6877 13.72H37.9837C38.6077 13.72 39.1597 13.9 39.6397 14.26C40.1437 14.62 40.4917 15.088 40.6837 15.664L48.1357 38.056C48.3037 38.536 48.2437 38.98 47.9557 39.388C47.6677 39.796 47.2717 40 46.7677 40H45.4717C44.8957 40 44.3557 39.82 43.8517 39.46C43.3717 39.076 43.0477 38.596 42.8797 38.02L41.7277 33.952C41.7037 33.76 41.5717 33.664 41.3317 33.664H33.1957C32.9797 33.664 32.8477 33.76 32.7997 33.952L31.6477 38.02C31.5037 38.596 31.1797 39.076 30.6757 39.46C30.1957 39.82 29.6557 40 29.0557 40H27.9037ZM56.6792 17.824V25.636C56.6792 25.828 56.7872 25.924 57.0032 25.924H58.8032C63.0752 25.924 65.2112 24.4 65.2112 21.352C65.2112 18.64 63.2312 17.284 59.2712 17.284C58.5512 17.284 57.7952 17.344 57.0032 17.464C56.7872 17.512 56.6792 17.632 56.6792 17.824ZM53.7632 40C53.2112 40 52.7312 39.796 52.3232 39.388C51.9152 38.98 51.7112 38.5 51.7112 37.948V15.952C51.7112 15.376 51.9032 14.86 52.2872 14.404C52.6712 13.948 53.1512 13.696 53.7272 13.648C55.7672 13.456 57.7352 13.36 59.6312 13.36C63.1592 13.36 65.7992 14.02 67.5512 15.34C69.3032 16.636 70.1792 18.472 70.1792 20.848C70.1792 22.552 69.7112 24.052 68.7752 25.348C67.8632 26.644 66.6272 27.556 65.0672 28.084C65.0432 28.084 65.0312 28.096 65.0312 28.12C65.0312 28.168 65.0432 28.192 65.0672 28.192C66.2192 28.912 67.2032 30.328 68.0192 32.44L70.1792 38.092C70.3472 38.548 70.2872 38.98 69.9992 39.388C69.7352 39.796 69.3632 40 68.8832 40H67.7672C67.1432 40 66.5792 39.832 66.0752 39.496C65.5712 39.136 65.2112 38.668 64.9952 38.092L62.9792 32.548C62.5472 31.396 62.0552 30.64 61.5032 30.28C60.9512 29.92 60.0032 29.74 58.6592 29.74H57.0032C56.7872 29.74 56.6792 29.848 56.6792 30.064V37.948C56.6792 38.5 56.4752 38.98 56.0672 39.388C55.6832 39.796 55.2152 40 54.6632 40H53.7632Z" fill="black"/>
<path d="M76.86 139C76.308 139 75.828 138.796 75.42 138.388C75.036 137.98 74.844 137.5 74.844 136.948V114.772C74.844 114.22 75.036 113.74 75.42 113.332C75.828 112.924 76.308 112.72 76.86 112.72H77.832C78.384 112.72 78.864 112.924 79.272 113.332C79.68 113.74 79.884 114.22 79.884 114.772V122.944C79.884 123.136 79.98 123.232 80.172 123.232H89.172C89.364 123.232 89.46 123.136 89.46 122.944V114.772C89.46 114.22 89.664 113.74 90.072 113.332C90.48 112.924 90.96 112.72 91.512 112.72H92.484C93.036 112.72 93.504 112.924 93.888 113.332C94.296 113.74 94.5 114.22 94.5 114.772V136.948C94.5 137.5 94.296 137.98 93.888 138.388C93.504 138.796 93.036 139 92.484 139H91.512C90.96 139 90.48 138.796 90.072 138.388C89.664 137.98 89.46 137.5 89.46 136.948V127.408C89.46 127.192 89.364 127.084 89.172 127.084H80.172C79.98 127.084 79.884 127.192 79.884 127.408V136.948C79.884 137.5 79.68 137.98 79.272 138.388C78.864 138.796 78.384 139 77.832 139H76.86ZM109.228 117.184L106.06 128.488C106.036 128.56 106.048 128.632 106.096 128.704C106.144 128.776 106.204 128.812 106.276 128.812H112.252C112.324 128.812 112.384 128.776 112.432 128.704C112.48 128.632 112.492 128.56 112.468 128.488L109.3 117.184C109.3 117.16 109.288 117.148 109.264 117.148C109.24 117.148 109.228 117.16 109.228 117.184ZM99.9037 139C99.3997 139 99.0037 138.796 98.7157 138.388C98.4277 137.98 98.3677 137.536 98.5357 137.056L105.988 114.664C106.204 114.088 106.552 113.62 107.032 113.26C107.536 112.9 108.088 112.72 108.688 112.72H109.984C110.608 112.72 111.16 112.9 111.64 113.26C112.144 113.62 112.492 114.088 112.684 114.664L120.136 137.056C120.304 137.536 120.244 137.98 119.956 138.388C119.668 138.796 119.272 139 118.768 139H117.472C116.896 139 116.356 138.82 115.852 138.46C115.372 138.076 115.048 137.596 114.88 137.02L113.728 132.952C113.704 132.76 113.572 132.664 113.332 132.664H105.196C104.98 132.664 104.848 132.76 104.8 132.952L103.648 137.02C103.504 137.596 103.18 138.076 102.676 138.46C102.196 138.82 101.656 139 101.056 139H99.9037ZM128.679 116.824V124.636C128.679 124.828 128.787 124.924 129.003 124.924H130.803C135.075 124.924 137.211 123.4 137.211 120.352C137.211 117.64 135.231 116.284 131.271 116.284C130.551 116.284 129.795 116.344 129.003 116.464C128.787 116.512 128.679 116.632 128.679 116.824ZM125.763 139C125.211 139 124.731 138.796 124.323 138.388C123.915 137.98 123.711 137.5 123.711 136.948V114.952C123.711 114.376 123.903 113.86 124.287 113.404C124.671 112.948 125.151 112.696 125.727 112.648C127.767 112.456 129.735 112.36 131.631 112.36C135.159 112.36 137.799 113.02 139.551 114.34C141.303 115.636 142.179 117.472 142.179 119.848C142.179 121.552 141.711 123.052 140.775 124.348C139.863 125.644 138.627 126.556 137.067 127.084C137.043 127.084 137.031 127.096 137.031 127.12C137.031 127.168 137.043 127.192 137.067 127.192C138.219 127.912 139.203 129.328 140.019 131.44L142.179 137.092C142.347 137.548 142.287 137.98 141.999 138.388C141.735 138.796 141.363 139 140.883 139H139.767C139.143 139 138.579 138.832 138.075 138.496C137.571 138.136 137.211 137.668 136.995 137.092L134.979 131.548C134.547 130.396 134.055 129.64 133.503 129.28C132.951 128.92 132.003 128.74 130.659 128.74H129.003C128.787 128.74 128.679 128.848 128.679 129.064V136.948C128.679 137.5 128.475 137.98 128.067 138.388C127.683 138.796 127.215 139 126.663 139H125.763Z" fill="black"/>
<path d="M40.86 86C40.308 86 39.828 85.796 39.42 85.388C39.036 84.98 38.844 84.5 38.844 83.948V61.772C38.844 61.22 39.036 60.74 39.42 60.332C39.828 59.924 40.308 59.72 40.86 59.72H41.832C42.384 59.72 42.864 59.924 43.272 60.332C43.68 60.74 43.884 61.22 43.884 61.772V69.944C43.884 70.136 43.98 70.232 44.172 70.232H53.172C53.364 70.232 53.46 70.136 53.46 69.944V61.772C53.46 61.22 53.664 60.74 54.072 60.332C54.48 59.924 54.96 59.72 55.512 59.72H56.484C57.036 59.72 57.504 59.924 57.888 60.332C58.296 60.74 58.5 61.22 58.5 61.772V83.948C58.5 84.5 58.296 84.98 57.888 85.388C57.504 85.796 57.036 86 56.484 86H55.512C54.96 86 54.48 85.796 54.072 85.388C53.664 84.98 53.46 84.5 53.46 83.948V74.408C53.46 74.192 53.364 74.084 53.172 74.084H44.172C43.98 74.084 43.884 74.192 43.884 74.408V83.948C43.884 84.5 43.68 84.98 43.272 85.388C42.864 85.796 42.384 86 41.832 86H40.86ZM73.2277 64.184L70.0597 75.488C70.0357 75.56 70.0477 75.632 70.0957 75.704C70.1437 75.776 70.2037 75.812 70.2757 75.812H76.2517C76.3237 75.812 76.3837 75.776 76.4317 75.704C76.4797 75.632 76.4917 75.56 76.4677 75.488L73.2997 64.184C73.2997 64.16 73.2877 64.148 73.2637 64.148C73.2397 64.148 73.2277 64.16 73.2277 64.184ZM63.9037 86C63.3997 86 63.0037 85.796 62.7157 85.388C62.4277 84.98 62.3677 84.536 62.5357 84.056L69.9877 61.664C70.2037 61.088 70.5517 60.62 71.0317 60.26C71.5357 59.9 72.0877 59.72 72.6877 59.72H73.9837C74.6077 59.72 75.1597 59.9 75.6397 60.26C76.1437 60.62 76.4917 61.088 76.6837 61.664L84.1357 84.056C84.3037 84.536 84.2437 84.98 83.9557 85.388C83.6677 85.796 83.2717 86 82.7677 86H81.4717C80.8957 86 80.3557 85.82 79.8517 85.46C79.3717 85.076 79.0477 84.596 78.8797 84.02L77.7277 79.952C77.7037 79.76 77.5717 79.664 77.3317 79.664H69.1957C68.9797 79.664 68.8477 79.76 68.7997 79.952L67.6477 84.02C67.5037 84.596 67.1797 85.076 66.6757 85.46C66.1957 85.82 65.6557 86 65.0557 86H63.9037ZM92.6792 63.824V71.636C92.6792 71.828 92.7872 71.924 93.0032 71.924H94.8032C99.0752 71.924 101.211 70.4 101.211 67.352C101.211 64.64 99.2312 63.284 95.2712 63.284C94.5512 63.284 93.7952 63.344 93.0032 63.464C92.7872 63.512 92.6792 63.632 92.6792 63.824ZM89.7632 86C89.2112 86 88.7312 85.796 88.3232 85.388C87.9152 84.98 87.7112 84.5 87.7112 83.948V61.952C87.7112 61.376 87.9032 60.86 88.2872 60.404C88.6712 59.948 89.1512 59.696 89.7272 59.648C91.7672 59.456 93.7352 59.36 95.6312 59.36C99.1592 59.36 101.799 60.02 103.551 61.34C105.303 62.636 106.179 64.472 106.179 66.848C106.179 68.552 105.711 70.052 104.775 71.348C103.863 72.644 102.627 73.556 101.067 74.084C101.043 74.084 101.031 74.096 101.031 74.12C101.031 74.168 101.043 74.192 101.067 74.192C102.219 74.912 103.203 76.328 104.019 78.44L106.179 84.092C106.347 84.548 106.287 84.98 105.999 85.388C105.735 85.796 105.363 86 104.883 86H103.767C103.143 86 102.579 85.832 102.075 85.496C101.571 85.136 101.211 84.668 100.995 84.092L98.9792 78.548C98.5472 77.396 98.0552 76.64 97.5032 76.28C96.9512 75.92 96.0032 75.74 94.6592 75.74H93.0032C92.7872 75.74 92.6792 75.848 92.6792 76.064V83.948C92.6792 84.5 92.4752 84.98 92.0672 85.388C91.6832 85.796 91.2152 86 90.6632 86H89.7632Z" fill="#074FDB"/>
</svg>
